HIERARCHY
ROOT Hips
{
  OFFSET 59.6053 92.8041 8.44153
  CHANNELS 6 Xposition Yposition Zposition Zrotation Xrotation Yrotation
  JOINT spine
  {
    OFFSET 0 7.4756 0.429885
    CHANNELS 3 Zrotation Xrotation Yrotation
    JOINT spine1
    {
      OFFSET 0 9.92301 0
      CHANNELS 3 Zrotation Xrotation Yrotation
      JOINT spine2
      {
        OFFSET 0 9.50804 0
        CHANNELS 3 Zrotation Xrotation Yrotation
        JOINT Neck
        {
          OFFSET 0 24.4111 1.16384
          CHANNELS 3 Zrotation Xrotation Yrotation
          JOINT Head
          {
            OFFSET 0 7.37523 0
            CHANNELS 3 Zrotation Xrotation Yrotation
            End Site
            {
              OFFSET 0 17.8522 -5.88741
            }
          }
        }
        JOINT RightShoulder
        {
          OFFSET -4.00356 10.2679 -0.557468
          CHANNELS 3 Zrotation Xrotation Yrotation
          JOINT RightArm
          {
            OFFSET 0 13.4673 0
            CHANNELS 3 Zrotation Xrotation Yrotation
            JOINT RightArmRoll
            {
              OFFSET 0 6.79858 0
              CHANNELS 3 Zrotation Xrotation Yrotation
              JOINT RightForeArm
              {
                OFFSET 0 19.8018 0
                CHANNELS 3 Zrotation Xrotation Yrotation
                JOINT RightForeArmRoll
                {
                  OFFSET 0 7.62906 0
                  CHANNELS 3 Zrotation Xrotation Yrotation
                  JOINT RightHand
                  {
                    OFFSET 0 15.3098 0
                    CHANNELS 3 Zrotation Xrotation Yrotation
                    End Site
                    {
                      OFFSET 0 0 0
                    }
                  }
                }
              }
            }
          }
        }
        JOINT LeftShoulder
        {
          OFFSET 4.00356 10.2679 -0.557468
          CHANNELS 3 Zrotation Xrotation Yrotation
          JOINT LeftArm
          {
            OFFSET 0 13.4673 0
            CHANNELS 3 Zrotation Xrotation Yrotation
            JOINT LeftArmRoll
            {
              OFFSET 0 6.79858 0
              CHANNELS 3 Zrotation Xrotation Yrotation
              JOINT LeftForeArm
              {
                OFFSET 0 19.8018 0
                CHANNELS 3 Zrotation Xrotation Yrotation
                JOINT LeftForeArmRoll
                {
                  OFFSET 0 7.62905 0
                  CHANNELS 3 Zrotation Xrotation Yrotation
                  JOINT LeftHand
                  {
                    OFFSET 0 15.3098 0
                    CHANNELS 3 Zrotation Xrotation Yrotation
                    End Site
                    {
                      OFFSET 0 0 0
                    }
                  }
                }
              }
            }
          }
        }
      }
    }
  }
  JOINT RightUpLeg
  {
    OFFSET -6.62609 -1.21505 -1.01927
    CHANNELS 3 Zrotation Xrotation Yrotation
    JOINT RightUpLegRoll
    {
      OFFSET 0 17.9517 0
      CHANNELS 3 Zrotation Xrotation Yrotation
      JOINT RightLeg
      {
        OFFSET 0 -22.2304 0
        CHANNELS 3 Zrotation Xrotation Yrotation
        JOINT RightLegRoll
        {
          OFFSET 0 22.3032 0
          CHANNELS 3 Zrotation Xrotation Yrotation
          JOINT RightFoot
          {
            OFFSET 0 18.5636 0
            CHANNELS 3 Zrotation Xrotation Yrotation
            JOINT RightToeBase
            {
              OFFSET 0 15.5183 0
              CHANNELS 3 Zrotation Xrotation Yrotation
              End Site
              {
                OFFSET 0.00657761 7.51538 -0.866263
              }
            }
          }
        }
      }
    }
  }
  JOINT LeftUpLeg
  {
    OFFSET 6.62609 -1.21505 -1.01927
    CHANNELS 3 Zrotation Xrotation Yrotation
    JOINT LeftUpLegRoll
    {
      OFFSET 0 17.9518 0
      CHANNELS 3 Zrotation Xrotation Yrotation
      JOINT LeftLeg
      {
        OFFSET 0 22.2303 0
        CHANNELS 3 Zrotation Xrotation Yrotation
        JOINT LeftLegRoll
        {
          OFFSET 0 22.5093 0
          CHANNELS 3 Zrotation Xrotation Yrotation
          JOINT LeftFoot
          {
            OFFSET 0 18.3575 0
            CHANNELS 3 Zrotation Xrotation Yrotation
            JOINT LeftToeBase
            {
              OFFSET 0 15.5183 0
              CHANNELS 3 Zrotation Xrotation Yrotation
              End Site
              {
                OFFSET -0.029478 7.51539 -0.866263
              }
            }
          }
        }
      }
    }
  }
}
MOTION
Frames: 12
Frame Time: 0.00208333
59.0876 92.8501 6.29634 0.592122 -8.42271 -0.548793 0.0767347 -0.7167 -0.151765 0.151248 2.56923 -0.312395 0.155166 4.21429 -0.315186 -20.5172 26.6146 1.80411 16.1865 -3.96041 -3.83737 4.92595 -12.7067 -10.4361 14.1626 29.8969 92.3522 4.69567e-007 -9.95962e-007 -8.20839e-006 -0.433282 46.4109 0.441981 5.24525e-006 2.55124e-006 -3.00096 8.0293 -4.95146 0.69768 -32.6695 -13.9687 10.1362 6.32116 30.2751 -83.1197 -6.01903e-007 2.33448e-007 8.18452e-006 5.28512 42.0462 -2.7174 -1.04969e-005 -9.89985e-007 3.00118 -8.02973 -4.95143 -0.697661 174.806 5.8212 2.91834 -180 7.01512e-015 178.779 178.681 26.2514 179.29 1.6134e-006 -4.95199e-006 0.443296 -18.9839 68.3227 19.7901 8.18011 26.4726 -1.8023 176.334 -2.32426 3.87874 4.54188e-006 -4.6773e-006 -1.11424 -4.24673 -10.4161 -0.121773 -1.11132e-006 4.10045e-006 -0.129912 19.982 69.8039 -21.1402 -8.1365 25.2327 3.48774 
59.079 92.8511 6.30051 0.573917 -8.44322 -0.555389 0.0783284 -0.707392 -0.153204 0.153552 2.58784 -0.315429 0.15751 4.2329 -0.318263 -20.4834 26.5969 1.79878 16.1567 -3.98567 -3.82694 5.05754 -12.7058 -10.4244 14.4191 29.9342 91.843 4.69567e-007 -9.95962e-007 -8.20839e-006 -0.442001 46.3081 0.416091 5.24525e-006 2.55124e-006 -3.00097 8.0293 -4.95146 0.69768 -32.7073 -13.9514 10.116 6.14789 30.28 -82.9677 -6.01903e-007 2.33448e-007 8.18452e-006 5.30777 41.6585 -2.686 -1.04969e-005 -9.89985e-007 3.00117 -8.02973 -4.95143 -0.697661 174.825 5.79811 2.91098 -180 7.01512e-015 178.779 178.678 26.2406 179.291 1.6134e-006 -4.95199e-006 0.443038 -18.982 68.3204 19.7882 8.18005 26.4614 -1.81751 176.352 -2.329 3.86713 4.54188e-006 -4.6773e-006 -1.11448 -4.24551 -10.4413 -0.121703 -1.11132e-006 4.10045e-006 -0.13001 19.9837 69.8057 -21.1421 -8.1365 25.2327 3.48774 
59.0786 92.851 6.29665 0.555351 -8.46351 -0.561899 0.0800145 -0.698067 -0.154648 0.155956 2.60648 -0.318481 0.159954 4.25154 -0.321358 -20.4503 26.5799 1.79354 16.1277 -4.01024 -3.81683 5.19315 -12.7045 -10.4118 14.6751 29.9678 91.3181 4.69567e-007 -9.95962e-007 -8.20839e-006 -0.436129 46.2311 0.383983 5.24525e-006 2.55124e-006 -3.00098 8.0293 -4.95146 0.69768 -32.7476 -13.9341 10.0956 5.97306 30.2855 -82.812 -6.01903e-007 2.33448e-007 8.18452e-006 5.33025 41.2586 -2.65339 -1.04969e-005 -9.89985e-007 3.00116 -8.02973 -4.95143 -0.697661 174.844 5.77503 2.90352 -180 7.01512e-015 178.779 178.675 26.2292 179.292 1.6134e-006 -4.95199e-006 0.442788 -18.9799 68.3179 19.786 8.17998 26.4499 -1.83293 176.37 -2.33294 3.8554 4.54188e-006 -4.6773e-006 -1.11471 -4.24418 -10.4673 -0.121615 -1.11132e-006 4.10045e-006 -0.130111 19.9856 69.8078 -21.1442 -8.1365 25.2327 3.48774 
59.0767 92.8529 6.29109 0.536517 -8.48343 -0.568352 0.0817789 -0.688774 -0.156091 0.158459 2.62506 -0.321538 0.162497 4.27012 -0.324461 -20.4179 26.5631 1.78841 16.0997 -4.03389 -3.80696 5.33221 -12.7029 -10.3983 14.9306 29.997 90.7814 4.69567e-007 -9.95962e-007 -8.20839e-006 -0.419187 46.1712 0.346985 5.24525e-006 2.55124e-006 -3.00098 8.0293 -4.95146 0.69768 -32.7909 -13.9169 10.075 5.7972 30.2914 -82.653 -6.01903e-007 2.33448e-007 8.18452e-006 5.35249 40.848 -2.61971 -1.04969e-005 -9.89985e-007 3.00115 -8.02973 -4.95143 -0.697661 174.864 5.75221 2.89597 -180 7.01512e-015 178.779 178.671 26.2173 179.293 1.6134e-006 -4.95199e-006 0.442546 -18.9777 68.3152 19.7837 8.17989 26.4383 -1.84857 176.389 -2.33607 3.8436 4.54188e-006 -4.6773e-006 -1.11492 -4.24276 -10.494 -0.121513 -1.11132e-006 4.10045e-006 -0.130215 19.9877 69.8101 -21.1465 -8.1365 25.2327 3.48774 
59.0749 92.8515 6.2904 0.517512 -8.50282 -0.574779 0.0836075 -0.679561 -0.157529 0.16106 2.64348 -0.324589 0.165138 4.28854 -0.32756 -20.3863 26.5461 1.78344 16.0725 -4.05638 -3.79728 5.47411 -12.7011 -10.3843 15.1856 30.0211 90.2365 4.69567e-007 -9.95962e-007 -8.20839e-006 -0.394706 46.1195 0.306431 5.24525e-006 2.55124e-006 -3.00099 8.0293 -4.95146 0.69768 -32.8377 -13.8995 10.0541 5.6209 30.2972 -82.4911 -6.01903e-007 2.33448e-007 8.18452e-006 5.37439 40.4282 -2.58508 -1.04969e-005 -9.89986e-007 3.00114 -8.02973 -4.95143 -0.697661 174.884 5.7299 2.88836 -180 7.01511e-015 178.779 178.667 26.2052 179.295 1.6134e-006 -4.95199e-006 0.442311 -18.9754 68.3125 19.7813 8.17979 26.4265 -1.86445 176.408 -2.33832 3.8318 4.54188e-006 -4.6773e-006 -1.11511 -4.24129 -10.521 -0.121401 -1.11132e-006 4.10045e-006 -0.13032 19.9899 69.8125 -21.149 -8.1365 25.2327 3.48774 
59.0754 92.8498 6.27339 0.498429 -8.52152 -0.581209 0.0854862 -0.670475 -0.158955 0.163758 2.66164 -0.327624 0.167877 4.3067 -0.330644 -20.3557 26.5285 1.77867 16.0465 -4.07746 -3.78773 5.61827 -12.6991 -10.3698 15.44 30.0397 89.6871 4.69567e-007 -9.95962e-007 -8.20839e-006 -0.366239 46.0673 0.263672 5.24525e-006 2.55124e-006 -3.001 8.0293 -4.95146 0.69768 -32.8885 -13.8818 10.0327 5.44472 30.3025 -82.3269 -6.01903e-007 2.33448e-007 8.18452e-006 5.39586 40.0007 -2.54964 -1.04969e-005 -9.89985e-007 3.00113 -8.02973 -4.95143 -0.697661 174.903 5.70836 2.88073 -180 7.01511e-015 178.778 178.663 26.1929 179.296 1.6134e-006 -4.95199e-006 0.442083 -18.9731 68.3097 19.7789 8.17969 26.4145 -1.88057 176.428 -2.33967 3.82003 4.54188e-006 -4.6773e-006 -1.11528 -4.23981 -10.5482 -0.121285 -1.11132e-006 4.10045e-006 -0.130427 19.9921 69.8149 -21.1514 -8.1365 25.2327 3.48774 
59.0723 92.8528 6.27353 0.479365 -8.53939 -0.587671 0.0874007 -0.661564 -0.160364 0.166553 2.67946 -0.33063 0.170712 4.32452 -0.333701 -20.326 26.5098 1.77413 16.0216 -4.09688 -3.77826 5.76411 -12.697 -10.3551 15.6939 30.0527 89.137 4.69567e-007 -9.95962e-007 -8.20839e-006 -0.337366 46.0058 0.22008 5.24525e-006 2.55124e-006 -3.00101 8.0293 -4.95146 0.69768 -32.944 -13.8639 10.0108 5.26921 30.3068 -82.1608 -6.01903e-007 2.33448e-007 8.18452e-006 5.41679 39.567 -2.51349 -1.04969e-005 -9.89986e-007 3.00111 -8.02973 -4.95143 -0.697661 174.923 5.68782 2.87308 -180 7.01511e-015 178.778 178.659 26.1808 179.297 1.6134e-006 -4.95199e-006 0.441862 -18.9708 68.3069 19.7765 8.17957 26.4024 -1.89695 176.447 -2.34008 3.80835 4.54188e-006 -4.6773e-006 -1.11545 -4.23833 -10.5754 -0.12117 -1.11132e-006 4.10045e-006 -0.130535 19.9943 69.8173 -21.1539 -8.1365 25.2327 3.48774 
59.0673 92.8566 6.27272 0.460415 -8.55627 -0.594197 0.089337 -0.652875 -0.161751 0.169444 2.69683 -0.333597 0.173643 4.34189 -0.33672 -20.2974 26.4895 1.76986 15.998 -4.11441 -3.7688 5.91104 -12.6949 -10.3403 15.947 30.0603 88.59 4.69567e-007 -9.95962e-007 -8.20839e-006 -0.3117 45.9261 0.177049 5.24525e-006 2.55124e-006 -3.00102 8.0293 -4.95146 0.69768 -33.0044 -13.8455 9.98822 5.09496 30.3099 -81.9933 -6.01903e-007 2.33448e-007 8.18452e-006 5.43707 39.1287 -2.47676 -1.04969e-005 -9.89986e-007 3.0011 -8.02973 -4.95143 -0.697661 174.943 5.66855 2.86547 -180 7.01511e-015 178.778 178.655 26.1689 179.298 1.6134e-006 -4.95199e-006 0.441647 -18.9686 68.3043 19.7742 8.17944 26.3901 -1.91359 176.466 -2.33951 3.79682 4.54188e-006 -4.6773e-006 -1.11561 -4.2369 -10.6023 -0.12106 -1.11132e-006 4.10045e-006 -0.130643 19.9965 69.8196 -21.1563 -8.1365 25.2327 3.48774 
59.0656 92.8549 6.26742 0.441673 -8.572 -0.600814 0.0912808 -0.644457 -0.16311 0.172429 2.71365 -0.336513 0.176668 4.35872 -0.339689 -20.27 26.4674 1.76589 15.9757 -4.1298 -3.7593 6.05846 -12.6929 -10.3256 16.1994 30.0628 88.0497 4.69567e-007 -9.95962e-007 -8.20839e-006 -0.29288 45.8194 0.135992 5.24525e-006 2.55124e-006 -3.00103 8.0293 -4.95146 0.69768 -33.0705 -13.8265 9.96484 4.92255 30.3113 -81.8249 -6.01903e-007 2.33448e-007 8.18452e-006 5.45657 38.6873 -2.43955 -1.04969e-005 -9.89986e-007 3.00109 -8.02973 -4.95143 -0.697661 174.962 5.6508 2.8579 -180 7.01511e-015 178.778 178.651 26.1575 179.299 1.6134e-006 -4.95199e-006 0.441437 -18.9666 68.3019 19.7722 8.17932 26.3775 -1.9305 176.485 -2.33792 3.78548 4.54188e-006 -4.6773e-006 -1.11575 -4.23554 -10.6288 -0.12096 -1.11132e-006 4.10045e-006 -0.130752 19.9985 69.8217 -21.1585 -8.1365 25.2327 3.48774 
59.0785 92.852 6.25399 0.423236 -8.58643 -0.607553 0.0932181 -0.636358 -0.164435 0.175508 2.72985 -0.339366 0.179786 4.37491 -0.342598 -20.2439 26.4428 1.76228 15.955 -4.1428 -3.74971 6.2058 -12.691 -10.3112 16.451 30.0608 87.52 4.69567e-007 -9.95962e-007 -8.20839e-006 -0.284559 45.6771 0.0983335 5.24525e-006 2.55124e-006 -3.00104 8.0293 -4.95146 0.69768 -33.1427 -13.8069 9.94054 4.75258 30.3106 -81.6561 -6.01903e-007 2.33448e-007 8.18452e-006 5.47517 38.2442 -2.40194 -1.04969e-005 -9.89986e-007 3.00108 -8.02973 -4.95143 -0.697661 174.981 5.63481 2.8504 -180 7.01511e-015 178.778 178.647 26.1468 179.301 1.6134e-006 -4.95199e-006 0.441234 -18.9649 68.2997 19.7704 8.17918 26.3648 -1.9477 176.503 -2.33528 3.77438 4.54188e-006 -4.6773e-006 -1.11589 -4.2343 -10.6547 -0.120875 -1.11132e-006 4.10045e-006 -0.130859 20.0003 69.8237 -21.1605 -8.1365 25.2327 3.48774 
59.0721 92.8501 6.25116 0.405198 -8.59941 -0.614444 0.0951346 -0.628624 -0.165722 0.178681 2.74531 -0.342145 0.182996 4.39037 -0.345434 -20.2192 26.4155 1.75905 15.9357 -4.15317 -3.73995 6.35247 -12.6893 -10.2973 16.7018 30.0551 87.0046 4.69567e-007 -9.95962e-007 -8.20839e-006 -0.290389 45.4902 0.0654952 5.24525e-006 2.55124e-006 -3.00105 8.0293 -4.95146 0.69768 -33.2216 -13.7865 9.91522 4.58563 30.3076 -81.4874 -6.01903e-007 2.33448e-007 8.18452e-006 5.49272 37.801 -2.36402 -1.04969e-005 -9.89986e-007 3.00107 -8.02973 -4.95143 -0.697661 174.999 5.62084 2.84301 -180 7.01511e-015 178.778 178.643 26.1369 179.302 1.6134e-006 -4.95199e-006 0.441035 -18.9635 68.298 19.7689 8.17904 26.3518 -1.9652 176.521 -2.33153 3.76358 4.54188e-006 -4.6773e-006 -1.11602 -4.23319 -10.6797 -0.120809 -1.11132e-006 4.10045e-006 -0.130966 20.0018 69.8254 -21.1622 -8.1365 25.2327 3.48774 
59.0623 92.8555 6.24466 0.387654 -8.61079 -0.621516 0.0970161 -0.621304 -0.166964 0.181945 2.75994 -0.344839 0.186297 4.405 -0.348186 -20.1959 26.3849 1.75624 15.9182 -4.16067 -3.72999 6.49787 -12.688 -10.284 16.9517 30.0467 86.5072 4.69567e-007 -9.95962e-007 -8.20839e-006 -0.313998 45.2499 0.0388817 5.24525e-006 2.55124e-006 -3.00106 8.0293 -4.95146 0.69768 -33.3076 -13.7653 9.88876 4.42227 30.3018 -81.3194 -6.01903e-007 2.33448e-007 8.18452e-006 5.50907 37.3592 -2.32588 -1.04969e-005 -9.89986e-007 3.00106 -8.02973 -4.95143 -0.697661 175.017 5.60913 2.83574 -180 7.01511e-015 178.778 178.638 26.1281 179.303 1.6134e-006 -4.95199e-006 0.440841 -18.9624 68.2967 19.7679 8.17891 26.3386 -1.983 176.539 -2.32666 3.75313 4.54188e-006 -4.6773e-006 -1.11615 -4.23226 -10.7036 -0.120768 -1.11132e-006 4.10045e-006 -0.131071 20.003 69.8267 -21.1635 -8.1365 25.2327 3.48774 
